<?xml version="1.0" encoding="UTF-8"?>
<!DOCTYPE svg PUBLIC "-//W3C//DTD SVG 1.1//EN" "http://www.w3.org/Graphics/SVG/1.1/DTD/svg11.dtd">
<!-- Creator: CorelDRAW 2020 (64-Bit Versión de evaluación) -->
<svg xmlns="http://www.w3.org/2000/svg" xml:space="preserve" width="160.304mm" height="237.489mm" version="1.1" style="shape-rendering:geometricPrecision; text-rendering:geometricPrecision; image-rendering:optimizeQuality; fill-rule:evenodd; clip-rule:evenodd"
viewBox="0 0 17009.16 25198.81"
 xmlns:xlink="http://www.w3.org/1999/xlink"
 xmlns:xodm="http://www.corel.com/coreldraw/odm/2003">
 <defs>
  <style type="text/css">
   <![CDATA[
    .fil1 {fill:none}
    .fil0 {fill:black}
   ]]>
  </style>
 </defs>
 <g id="Capa_x0020_1">
  <metadata id="CorelCorpID_0Corel-Layer"/>
  <path class="fil0" d="M-0 20244.1c1.43,1083.39 84.09,2111.35 271.85,3169.02 128.5,723.87 122.79,910.46 391.83,1082.26 112.38,71.76 175.99,159.44 315.71,246.98 406.69,254.81 986.6,331.66 1472.95,244.89 479.32,-85.51 -191.17,-161.35 926.55,-35.56 2567.81,289 5091.43,340.95 7671.82,67.95 350.68,-37.09 1741.46,-537.67 1932.76,-695.51 -67.1,-29.48 -4604.07,202.88 -5496.45,200.84 -1690.98,-2.23 -3561.15,-131.61 -5200.85,-387.16 -935.54,-145.81 -1325.66,-492.33 -1323.7,-1496.96 1.22,-623.85 38.37,-588.39 -16.91,-1347.86 -24.62,-338.09 -145.65,-1027.46 -9.07,-1283.72 332.28,302.46 1613.67,723.15 2147.04,896.88 2463.1,549.59 5037.92,860.8 7549.32,352.06 643.85,-130.44 2130.73,-529.07 2540.83,-855.37 -19.7,-437.63 207.38,-756.87 -508.81,-611.09 -1568.79,319.3 -3012.38,464.64 -4639.78,465.06 -889.66,0.29 -4104.76,-260.78 -4697.31,-611.63l258.52 -645.6c-128.37,23.73 -113.09,-2.59 -316.3,232.4 -54.35,62.86 -172.29,221.65 -216.15,299.56 -265.44,-80.44 -561.01,-359.12 -717.02,-482.62 37.29,-310.8 539.23,-811.43 475.14,-1074.58 -228.07,26.79 -464.03,297.6 -587.17,475.38 -81.61,117.82 -52.95,136.39 -156.92,225.42l-197.57 -407.22c179.97,-194.22 621.79,-831.1 642.2,-1165.14 -264.01,43.18 -494.79,422.87 -660.24,637.47 -93.49,121.26 -6.94,45.11 -117.28,119.9 -56.75,-476.21 -129.42,-796.46 -123.7,-1321.79 16.47,-1512.86 179.58,-4091.87 452.62,-5674.78 36.99,-214.44 200.33,-1128.62 158.39,-1275.23 -67.46,-235.84 -529.49,-257.08 -609.95,-83.39 -81.35,175.61 -148.38,356.89 -203.56,544.84 -312.16,1063.3 -765.26,3785.74 -881.66,4918.28 -44.77,435.48 -71.27,875.23 -116.04,1307.74 -39.92,385.65 -160.11,836.77 -219.62,1243.09 -132.24,903.03 -188.96,1797.69 -191.52,2725.18z"/>
  <path class="fil0" d="M2610.48 19257.13l63.46 11.1c288.32,-25.21 393.8,-688.45 390.78,-762.22 -161.65,1.05 -543.32,488.77 -454.24,751.12z"/>
  <path class="fil1" d="M13011.31 13743.94c0,0 0,0 0,0"/>
  <path class="fil0" d="M2033.41 22691.23c0,237.89 24.23,533.82 117.97,754.04 18.41,42.81 37.82,78.65 58.22,108 53.76,70.68 110.5,112.98 170.72,126.92 57.23,12.45 109,8.47 154.8,-11.95 13.43,-5.97 23.88,-11.45 31.85,-17.42 173.77,-139 16.41,-480.96 154.79,-617.67 39.81,-39.31 87.1,-58.73 142.84,-58.73 56.25,0 104.04,19.42 143.35,58.73 190.54,190.61 45,1000.57 -508.67,1055.18 -70.68,6.97 -142.85,1.49 -216.51,-15.94 -566.01,-142.47 -655,-904.04 -655,-1381.16 0,-169.23 12.94,-333.98 38.33,-494.24 69.37,-446.8 308.07,-957.92 847.12,-909.83 164.88,14.8 333.36,86.32 434.5,222.47 104.26,139.03 186.87,568.07 60.23,696.32 -39.31,39.81 -87.1,59.73 -143.35,59.73 -55.74,0 -103.03,-19.92 -142.84,-59.73 -136.67,-136.7 59.47,-600.65 -338.45,-506.19 -326.53,90.74 -349.89,757.1 -349.89,991.47z"/>
  <path class="fil0" d="M3773.26 24137.7c-46.94,0.81 -128.08,-18.83 -159.72,-49.66 -31.64,-30.82 -48.59,-69.01 -51.04,-115.16 -5.72,-283.39 -8.17,-538.19 -8.17,-764.4 0,-189.88 2.05,-565.14 6.94,-1125.79l-279.7 0c-46.55,0 -85.76,-16.34 -118.01,-48.59 -88.98,-88.99 -52.15,-340.06 121.52,-325.1l895.81 77.2c229.59,19.78 196.63,296.48 -14.04,296.48l-222.59 0c-4.09,474.49 -16.65,853.27 -16.65,1129.3 0,265.42 4.48,517.74 8.57,757.06 0.8,46.95 -16.45,86.45 -46.96,118.41 -30.31,31.75 -68.98,49.42 -115.96,50.23z"/>
  <path class="fil0" d="M4847.53 22865.07c62.89,0 123.73,-3.68 182.12,-10.62 58.8,-7.34 108.22,-23.68 147.83,-49.4 39.2,-27.77 69.41,-69.01 91.06,-122.91 28.57,-73.5 42.87,-155.58 42.87,-246.64 0,-42.05 -2.85,-82.89 -9.39,-122.08 -15.93,-99.63 -50.63,-162.92 -104.12,-190.29 -31.85,-13.48 -72.68,-20.01 -122.1,-20.01 -61.25,0 -148.23,10.62 -260.52,32.27l-1.22 35.93c-3.27,336.47 -4.9,567.59 -4.9,693.77l38.38 0z"/>
  <path class="fil0" d="M4905.93 23195l-98.01 1.22c0,269.1 2.86,525.54 8.17,769.32 -0.82,46.95 -16.33,86.56 -46.55,118.41 -30.22,31.85 -69.01,48.6 -115.97,50.23 -46.95,0 -86.16,-15.11 -118.01,-46.15 -31.44,-30.62 -48.18,-69.01 -50.63,-115.16 -5.71,-351.98 -8.57,-602.3 -8.57,-751.34l8.57 -1218.07c0,-81.78 52.68,-148.4 132.72,-166.19 266.18,-60.21 634.8,-132.02 862.4,90.24 409.25,399.59 353.33,984.71 -227.03,1209.09l371.73 659.58c225.66,400.4 -159.74,654.08 -718.81,-601.19z"/>
  <path class="fil0" d="M7008.45 23728.77c79.1,73.58 97.86,360.12 -106.98,374.38 -64.75,2.29 -885.32,99.26 -1003.69,-13.07 -31.85,-30.22 -49.41,-68.6 -52.68,-114.74 0,-13.88 1.23,-26.95 3.67,-39.61 -1.62,-89.43 -3.26,-187.83 -4.89,-295.63 -5.46,-343.22 -2.85,-685.38 0,-1028.61 1.63,-191.51 4.37,-387.51 4.89,-588.82 1.09,-419.11 385.08,-319.55 385.57,-138.28 1.5,561.49 -66.39,1152.41 -60.12,1752.02 0.82,55.95 1.63,109.85 2.45,161.7 156.38,-24.93 713.51,-179.39 831.78,-69.35z"/>
  <path class="fil0" d="M13864.37 8121.48l-142.58 139.8c-59.4,47.78 -91.38,64.41 -148.92,113.52 -110.48,94.31 -173.69,159.75 -188.69,303.06 271.65,43.86 439.13,-251.8 768.77,-486.14l364.09 113.8c-128.12,255.63 -527.26,538.48 -520.3,915.19 381.61,-14.59 534.16,-600.26 792.54,-761.69 104.69,47.6 169.23,127.59 238.09,232.94 -82.87,150.18 -485.55,387.66 -312.96,679.71 262.03,113.9 345.21,-161.25 486.61,-317.87l83.15 192.37c67.21,331.13 -289.55,213.51 -143.11,591.36 212.42,27.05 6.31,-8.64 158.16,-28.5l68.98 0.22c323.66,2095.35 402.09,3683.54 292.39,5836.41 -33.25,652.66 -127.97,2669.69 -316.53,3136.07 -142.67,352.9 -517.89,696.17 -808.69,911.54l-721.72 551.05c-118.62,89.1 -172.28,93.68 -250.1,240.93 502.68,138.57 391.11,167.57 978.87,44.01 -82.56,1196.74 -127.47,1564.69 10.24,2746.78 -277.01,323.12 -930.7,623.89 -857.04,986.77 355.29,141.09 383.55,0.4 709.18,25.85 712.79,55.71 1152.73,-463.48 1502,-978.76 409.07,-603.48 631.94,-1965.1 684.67,-2730.05 33.22,-482.04 -48.94,-1194.18 111.4,-1564.95 324.26,-749.76 249.35,-4614.42 209.17,-5659.52 -10.88,-283.11 116.89,-363.9 94.48,-784.79 -15.19,-285.21 -58.99,-1391.53 -173.92,-1563.52 -98.34,-147.18 -194.14,-1119.22 -272.66,-1406.24 -111.18,-406.4 -292.67,-887.96 -491.42,-1230.6l-762.52 -924.44c-935.05,-718.97 -3121.69,-794.76 -4300.4,-826.27 -2876.72,-76.92 -5973.02,514.96 -8525.23,1692.07 -395.1,182.23 -805.8,393.29 -1061.54,624.99 -610.51,553.12 704.02,217.76 859.38,157.47 3008.51,-1167.53 5110.24,-1329.73 8468.46,-1281.74 536.98,7.67 1075.83,42.3 1606.67,95.77 511.35,51.51 1026.17,161.34 1511.04,213.38z"/>
  <path class="fil0" d="M11318.21 3278.33c0,443.76 226.63,846.6 651.36,1007.18 244.97,175.77 82.14,1947.54 179.04,2405.51 29.22,219.05 369.53,223.7 410.5,11.95 90.69,-457.23 0.85,-2293.71 170.8,-2413.77 360.23,-129.7 661.48,-517.79 661.48,-927.96 0,-1469.7 -2073.18,-1347.92 -2073.18,-82.92z"/>
  <path class="fil0" d="M9524.55 3225.07c0,505.61 100.61,833.25 375.01,1213.61 105.55,146.33 613.07,703.61 834.27,703.61 307.88,0 381.94,-239.88 123.84,-398.81 -988.98,-608.97 -1067.19,-1801.71 -362.1,-2582.4 123.02,-110.45 516.06,-389.69 516.06,-501.08 0,-154.6 -200.04,-284.67 -425.29,-143.79 -624.78,390.78 -1061.8,1077.75 -1061.8,1708.87z"/>
  <path class="fil0" d="M15000.89 3225.07c0,505.61 -100.61,833.25 -375.01,1213.61 -105.55,146.33 -613.07,703.61 -834.27,703.61 -307.88,0 -381.94,-239.88 -123.84,-398.81 988.98,-608.97 1067.19,-1801.71 362.1,-2582.4 -123.02,-110.45 -516.06,-389.69 -516.06,-501.08 0,-154.6 200.04,-284.67 425.29,-143.79 624.78,390.78 1061.8,1077.75 1061.8,1708.87z"/>
  <path class="fil0" d="M16330.36 3016.43c0,789.86 -119.44,1301.68 -445.18,1895.89 -125.31,228.59 -727.78,1099.17 -990.38,1099.17 -365.49,0 -453.4,-374.73 -147.01,-623.01 1174.02,-951.33 1266.87,-2814.63 429.85,-4034.21 -146.03,-172.55 -612.63,-608.78 -612.63,-782.79 0,-241.52 237.46,-444.71 504.86,-224.63 741.69,610.46 1260.48,1683.65 1260.48,2669.58z"/>
  <path class="fil0" d="M7725.78 2763.77c0,789.86 119.44,1301.68 445.18,1895.89 125.31,228.59 727.78,1099.17 990.38,1099.17 365.49,0 453.4,-374.73 147.01,-623.01 -1174.02,-951.33 -1266.87,-2814.63 -429.85,-4034.21 146.03,-172.55 612.63,-608.78 612.63,-782.79 0,-241.52 -237.46,-444.71 -504.86,-224.63 -741.69,610.46 -1260.48,1683.65 -1260.48,2669.58z"/>
  <g id="_2321537846672">
   <path class="fil0" d="M6243.81 10886.65c-187.15,-40.27 -329.7,-136.15 -428.11,-283.78 -70.54,-111.53 -106.61,-232.91 -106.61,-364.13 0,-241.11 98.41,-426.47 293.6,-557.7 111.54,-73.81 236.2,-111.53 370.7,-111.53 41.01,0 83.65,3.27 129.59,9.84 242.76,50.86 470.76,93.5 683.99,127.94 213.24,32.81 456,50.86 728.29,50.86 282.12,0 580.66,-18.05 893.95,-54.13 282.07,-31.9 2426.24,-399.95 2372.52,-85.71 -173.95,1017.24 -4017.23,1466.43 -4937.9,1268.35z"/>
   <path class="fil0" d="M6255.47 18601.23c-114.43,0 -230.94,-19.68 -347.45,-62.33 -212.21,-83.65 -357.86,-208.33 -439,-373.99 -37.46,-73.81 -56.18,-149.27 -56.18,-226.35 0,-93.5 27.06,-187 79.07,-283.77 1248.34,-2120.88 2296.95,-3949.78 3145.83,-5488.36 203.88,-370.7 490.99,-920.19 859.26,-1648.47l18.73 -37.72c1617.37,-2774.6 2138.96,-578.25 1505.38,388.49 -755.81,1153.26 -1422.8,2936.51 -3375.82,6277.59 183.08,-9.85 372.42,-14.77 572.16,-14.77 378.66,0 794.78,13.13 1250.42,42.64l1389.82 96.78c235.1,24.61 424.43,106.61 565.91,244.4 131.07,121.38 195.57,264.08 195.57,428.11 0,201.75 -106.11,369.06 -316.24,505.2 -156.05,98.41 -337.05,147.62 -543.05,147.62l-72.81 0c-1069.41,-85.3 -1893.31,-129.59 -2469.63,-129.59 -499.34,0 -1113.11,42.65 -1841.3,124.66 -39.55,6.57 -81.15,9.85 -120.68,9.85z"/>
  </g>
 </g>
</svg>
